<?xml version="1.0" encoding="UTF-8"?>
<svg data-bbox="0 0 226.33 90.51" viewBox="0 0 226.34 90.52" xmlns:xlink="http://www.w3.org/1999/xlink" xmlns="http://www.w3.org/2000/svg" data-type="ugc">
    <g>
        <defs>
            <linearGradient gradientUnits="userSpaceOnUse" gradientTransform="translate(-10.82 -47.43)scale(1.15)" y2="82.58" x2="45.63" y1="36.65" x1="45.63" id="3f0afdf1-4e17-428e-8f84-d2b3e26d99d0">
                <stop stop-color="#0083ce" offset="0"/>
                <stop stop-color="#0099db" offset=".08"/>
                <stop stop-color="#00a9e5" offset=".16"/>
                <stop stop-color="#00b3ec" offset=".25"/>
                <stop stop-color="#00b7ee" offset=".37"/>
                <stop stop-color="#00b1e9" offset=".47"/>
                <stop stop-color="#00a1dc" offset=".59"/>
                <stop stop-color="#0087c7" offset=".73"/>
                <stop stop-color="#0062a9" offset=".88"/>
                <stop stop-color="#00418e" offset="1"/>
            </linearGradient>
            <linearGradient xlink:href="#3f0afdf1-4e17-428e-8f84-d2b3e26d99d0" gradientTransform="matrix(.27 0 -.07235 .24 -728.17 -829.37)" y2="3428.72" x2="4025.59" y1="3394.72" x1="3999.59" id="428ce775-eda8-4e2d-b973-78b72c7951df"/>
            <linearGradient xlink:href="#3f0afdf1-4e17-428e-8f84-d2b3e26d99d0" x2="151.96" x1="151.96" id="dce8ab3e-47a0-42f9-89a6-111b2fe17fdc"/>
            <linearGradient xlink:href="#3f0afdf1-4e17-428e-8f84-d2b3e26d99d0" x2="24.04" x1="24.04" id="cd6953cf-3005-417b-9d13-db33929471f1"/>
            <linearGradient xlink:href="#3f0afdf1-4e17-428e-8f84-d2b3e26d99d0" x2="64.92" x1="64.92" id="7b1f1546-0df2-44cc-b812-c097b24c5b2f"/>
            <linearGradient xlink:href="#3f0afdf1-4e17-428e-8f84-d2b3e26d99d0" x2="92.51" x1="92.51" id="0b066132-977c-4f3e-834d-9aa9f5194518"/>
            <linearGradient gradientUnits="userSpaceOnUse" gradientTransform="matrix(.27 0 0 .27 -997.11 -1012.51)" y2="3842.7" x2="4002" y1="3976.36" x1="4002" id="1a967451-4d03-493f-bd01-82a711592b05">
                <stop stop-color="#e6e6e6" offset=".1"/>
                <stop stop-color="#e2e2e2" offset=".32"/>
                <stop stop-color="#d8d8d8" offset=".5"/>
                <stop stop-color="#c7c7c7" offset=".66"/>
                <stop stop-color="#b0b0b0" offset=".82"/>
                <stop stop-color="#919191" offset=".96"/>
                <stop stop-color="#898989" offset="1"/>
            </linearGradient>
            <linearGradient xlink:href="#1a967451-4d03-493f-bd01-82a711592b05" x2="4132.17" x1="4132.17" id="7da5fbca-af70-45ce-a3a6-a6545036e032"/>
            <linearGradient xlink:href="#3f0afdf1-4e17-428e-8f84-d2b3e26d99d0" x2="121" x1="121" id="c4d43cd4-fdca-4d0d-8592-b972184b7952"/>
            <linearGradient xlink:href="#1a967451-4d03-493f-bd01-82a711592b05" x2="4252.79" x1="4252.79" id="da2c5237-a741-45de-ae96-b32d03b536ef"/>
        </defs>
        <path d="M3.7 63.41h1.74c1.28 0 2.12.17 2.79.92.99 1.09 1.02 2.88 1.02 3.27 0 .61-.04 2.33-1.38 3.33-.7.52-1.74.58-2.75.58H3.7zM2.24 72.7h2.95c1.54 0 2.83 0 3.87-.86.8-.64 1.74-2.03 1.74-4.3 0-1.44-.36-2.88-1.29-3.97-1.16-1.37-2.82-1.37-4.23-1.37H2.24v10.49Z" fill="#9ea3a6"/>
        <path d="M17.02 69.15c-.03 1.02-.04 1.42-.35 1.92-.33.51-.86.79-1.56.79-1.22 0-1.51-.8-1.51-1.26 0-1.49 2.08-1.49 2.63-1.49.33 0 .54.02.78.04Zm1.4 3.55c-.1-.74-.12-1.71-.12-1.83l.06-3.49c0-.33-.01-.69-.25-1.12-.39-.74-1.53-1.08-2.59-1.08-.77 0-1.8.18-2.36.79-.42.49-.47 1-.51 1.38h1.37c.01-.29.09-1.24 1.47-1.24.39 0 .99.12 1.26.48.26.32.26.71.26 1.61-.42-.03-.64-.05-.99-.05-.58 0-1.75.05-2.53.48-1.08.63-1.28 1.55-1.28 2.14 0 1.21.9 2.15 2.57 2.15.61 0 1.6-.12 2.25-1.32 0 .38.03.73.13 1.09h1.24Z" fill="#9ea3a6"/>
        <path d="M21.7 68.34c.03-1.62 1.1-2.15 1.99-2.15 1.69 0 1.82 1.46 1.8 2.15zm5.19.96c.03-1.19.1-4.09-3.17-4.09-.42 0-1.29.05-1.99.54-1.15.8-1.44 1.99-1.44 3.43 0 2.31 1.09 3.73 3.39 3.73 1.47 0 2.2-.61 2.52-.97.52-.56.58-1.16.62-1.52h-1.37c-.12 1.04-.83 1.51-1.71 1.51-1.5 0-2.12-1.12-2.09-2.63h5.25Z" fill="#9ea3a6"/>
        <path d="M31.79 71.55c-1.67 0-2.01-1.48-2.01-2.6 0-.93.23-2.68 1.96-2.68.63 0 1.2.25 1.57.64.36.38.57.9.57 1.82 0 1.32-.2 1.71-.49 2.09-.34.44-.8.73-1.6.73m-3.04 1.71c.06.99.14 2.35 3.07 2.35 1 0 2.43-.14 3.04-1.31.29-.55.35-1.26.35-3.02v-4.56l.04-1.32h-1.32l-.02 1c-.29-.38-.83-1.11-2.3-1.11-1.79 0-3.24 1.21-3.24 3.68 0 .97.2 1.95.83 2.69.61.76 1.57.9 2.24.9.44 0 1.82-.03 2.4-1.23 0 1.97-.03 3.36-1.93 3.36-1.3 0-1.64-.61-1.7-1.42h-1.45Z" fill="#9ea3a6"/>
        <path d="M39.03 65.4v4.7c0 .71.16 1.61 1.55 1.61.68 0 1.32-.23 1.72-.82.31-.43.31-1 .31-1.37v-4.13h1.41v5.93c0 .15.03.96.04 1.36h-1.42l-.03-1.25c-.26.51-.76 1.32-2.33 1.32-1.8 0-2.64-1.03-2.64-2.47v-4.9h1.4Z" fill="#9ea3a6"/>
        <path d="M57.8 64.82c-.16-.97-.95-1.64-2.37-1.64-.99 0-1.82.26-2.37.89-.92 1.02-1.12 2.38-1.12 3.37 0 .89.19 2.38.96 3.3.69.78 1.75 1.03 2.79 1.03 1.19 0 1.95-.23 2.28-.33v-3.11h-2.4v-1.21h3.85v5.18c-.61.2-1.95.64-3.73.64-1.93 0-3.06-.55-3.81-1.31-1.03-1.04-1.47-2.51-1.47-3.99 0-1.05.26-3.52 2.25-4.86 1.03-.7 2.4-.74 2.92-.74.83 0 2.09.1 3.1 1.12.62.65.67 1.26.7 1.67H57.8Z" fill="#9ea3a6"/>
        <path d="m65.29 72.74-1.05 2.72h-1.41l1.1-2.79-3.04-7.27h1.54l2.28 5.76 2.32-5.76h1.48l-3.24 7.34Z" fill="#9ea3a6"/>
        <path d="M70.97 68.34c.03-1.62 1.1-2.15 1.99-2.15 1.69 0 1.82 1.46 1.8 2.15h-3.8Zm5.19.96c.03-1.19.1-4.09-3.17-4.09-.42 0-1.29.05-1.99.54-1.15.8-1.44 1.99-1.44 3.43 0 2.31 1.09 3.73 3.38 3.73 1.47 0 2.19-.61 2.52-.97.52-.56.58-1.16.62-1.52h-1.37c-.12 1.04-.83 1.51-1.71 1.51-1.5 0-2.12-1.12-2.1-2.63h5.25Z" fill="#9ea3a6"/>
        <path d="M79.05 69.05c0-2.28 1.41-2.84 2.28-2.84 1.28 0 2.12.96 2.12 2.77 0 2.2-1.18 2.94-2.21 2.94-1.56 0-2.2-1.38-2.2-2.87Zm-1.42.08c0 2.14 1.18 3.81 3.59 3.81s3.69-1.77 3.69-3.91c0-1.53-.65-3.82-3.58-3.82s-3.71 2.12-3.71 3.92Z" fill="#9ea3a6"/>
        <path d="M87.09 66.24v-.84h1.35v1.18c.17-.3.7-1.32 2.35-1.32.65 0 2.64.25 2.64 2.48v4.95h-1.4v-4.63c0-.48-.06-.92-.39-1.25-.35-.34-.83-.49-1.29-.49-.99 0-1.9.71-1.9 2.18v4.2h-1.37v-6.45Z" fill="#9ea3a6"/>
        <path d="M98.82 71.55c-1.67 0-2.01-1.48-2.01-2.6 0-.93.23-2.68 1.96-2.68.63 0 1.21.25 1.57.64.37.38.57.9.57 1.82 0 1.32-.2 1.71-.49 2.09-.33.44-.8.73-1.6.73m-3.04 1.71c.06.99.15 2.35 3.06 2.35 1 0 2.43-.14 3.04-1.31.29-.55.35-1.26.35-3.02l.02-4.56.03-1.32h-1.32v1c-.31-.38-.84-1.11-2.31-1.11-1.79 0-3.24 1.21-3.24 3.68 0 .97.21 1.95.83 2.69.61.76 1.57.9 2.24.9.44 0 1.82-.03 2.4-1.23 0 1.97-.03 3.36-1.93 3.36-1.29 0-1.64-.61-1.7-1.42h-1.46Z" fill="#9ea3a6"/>
        <path d="M110.28 68.98c0 1.19-.42 2.83-2.11 2.83-2.04 0-2.04-2.28-2.04-2.76s0-2.91 2.09-2.91c1.91 0 2.05 2.11 2.05 2.84Zm-4.11-6.78h-1.37v9.18l-.03 1.31h1.33l.03-1.1c.15.22.3.47.71.74.63.42 1.28.46 1.63.46 1 0 1.98-.42 2.56-1.25.36-.48.7-1.25.7-2.66 0-1.6-.49-2.32-.86-2.75-.67-.75-1.58-.93-2.31-.93-1.65 0-2.19.92-2.38 1.25v-4.26Z" fill="#9ea3a6"/>
        <path d="M114.93 65.4v4.7c0 .71.16 1.61 1.56 1.61.68 0 1.32-.23 1.71-.82.31-.43.31-1 .31-1.37v-4.13h1.41v5.93c0 .15.03.96.04 1.36h-1.42l-.03-1.25c-.26.51-.76 1.32-2.33 1.32-1.8 0-2.65-1.03-2.65-2.47v-4.9h1.4Z" fill="#9ea3a6"/>
        <path d="M122.46 62.13h1.35v6.25l2.73-2.98h1.79l-3.08 3.1 3.27 4.2h-1.79l-2.92-3.94v3.94h-1.35V62.14Z" fill="#9ea3a6"/>
        <path d="M2.24 77.1h1.45v10.5H2.24z" fill="#9ea3a6"/>
        <path d="m6.33 81.14-.02-.84h1.37l.02 1.18c.16-.3.68-1.32 2.34-1.32.65 0 2.65.25 2.65 2.48v4.96H11.3v-4.64c0-.48-.06-.92-.39-1.25-.35-.33-.83-.49-1.29-.49-.99 0-1.9.71-1.9 2.18v4.2H6.35v-6.45Z" fill="#9ea3a6"/>
        <path d="M15.95 85.43c-.01.55.28 1.32 1.6 1.32.57 0 .99-.1 1.28-.46.15-.19.23-.43.23-.68 0-.71-.51-.84-1.6-1.09-1.53-.35-2.8-.65-2.8-2.18 0-1.33 1.16-2.21 2.85-2.21.92 0 2.19.26 2.63 1.13.19.41.19.76.19 1.06h-1.4c.04-1.1-.91-1.19-1.41-1.19-.2 0-1.48 0-1.48 1.05 0 .67.65.83 1.03.93 2.02.48 2.46.6 2.89 1 .41.38.55.88.55 1.35 0 .81-.45 1.51-.99 1.85-.64.39-1.41.49-2.17.49-1.48 0-2.86-.61-2.85-2.37h1.44Z" fill="#9ea3a6"/>
        <path d="M21.31 80.27h1.29v-1.53l1.35-.43v1.96h1.63v1h-1.63v4.38c0 .37 0 .97.97.97.28 0 .54-.04.66-.07v1.06c-.25.04-.64.09-1.14.09-1.25 0-1.85-.36-1.85-1.55v-4.87H21.3v-1Z" fill="#9ea3a6"/>
        <path d="M27.14 77.13h1.64v1.5h-1.64zm.14 3.17h1.37v7.3h-1.37z" fill="#9ea3a6"/>
        <path d="M30.19 80.27h1.29v-1.53l1.35-.43v1.96h1.63v1h-1.63v4.38c0 .37 0 .97.97.97.28 0 .54-.04.65-.07v1.06c-.25.04-.64.09-1.13.09-1.25 0-1.85-.36-1.85-1.55v-4.87h-1.29v-1Z" fill="#9ea3a6"/>
        <path d="M37.4 80.3v4.69c0 .71.16 1.62 1.56 1.62.68 0 1.32-.23 1.72-.81.3-.44.3-1 .3-1.37V80.3h1.41v5.93c0 .14.03.96.05 1.37h-1.43l-.03-1.25c-.26.51-.76 1.32-2.33 1.32-1.8 0-2.64-1.03-2.64-2.47v-4.9z" fill="#9ea3a6"/>
        <path d="M43.91 80.27h1.29v-1.53l1.35-.43v1.96h1.63v1h-1.63v4.38c0 .37 0 .97.97.97.27 0 .54-.04.65-.07v1.06c-.25.04-.64.09-1.13.09-1.25 0-1.85-.36-1.85-1.55v-4.87H43.9v-1Z" fill="#9ea3a6"/>
        <path d="M50.76 83.24c.03-1.62 1.1-2.15 1.99-2.15 1.68 0 1.82 1.45 1.8 2.15zm5.18.96c.03-1.19.1-4.08-3.17-4.08-.42 0-1.29.04-1.99.54-1.15.8-1.44 1.99-1.44 3.43 0 2.31 1.09 3.73 3.39 3.73 1.47 0 2.19-.61 2.51-.97.52-.57.58-1.16.63-1.53H54.5c-.12 1.05-.83 1.51-1.71 1.51-1.5 0-2.12-1.12-2.09-2.63z" fill="#9ea3a6"/>
        <path d="M62.88 83.95c0-2.28 1.41-2.83 2.28-2.83 1.28 0 2.12.96 2.12 2.78 0 2.19-1.18 2.93-2.21 2.93-1.56 0-2.19-1.38-2.19-2.88m-1.43.09c0 2.14 1.18 3.81 3.59 3.81s3.69-1.77 3.69-3.91c0-1.53-.65-3.82-3.58-3.82s-3.7 2.12-3.7 3.92" fill="#9ea3a6"/>
        <path d="M74.52 78.12c-.23-.01-.52-.03-.8-.03-1.11 0-1.11.55-1.11 1.06v1.15h1.7v.99h-1.7v6.31h-1.35v-6.31h-1.44v-.99h1.44v-.83c0-1 .06-1.37.31-1.75.3-.46.89-.8 1.83-.8.39 0 .83.06 1.12.1v1.09Z" fill="#9ea3a6"/>
        <path d="M80.8 84.53c.03.73.12 2.08 2.53 2.08 2.18 0 2.46-1.35 2.46-1.88 0-1.18-.95-1.41-2.41-1.77-1.6-.39-2.31-.57-2.85-.93-.86-.58-1.09-1.37-1.09-2.06 0-2.14 2.02-3.07 4-3.07.7 0 2.11.12 2.95 1.03.58.64.61 1.35.64 1.79h-1.51c-.07-1.31-1.18-1.6-2.21-1.6-1.45 0-2.33.66-2.33 1.7 0 .93.61 1.25 1.89 1.56 2.5.64 2.78.7 3.39 1.11.98.64 1.05 1.66 1.05 2.09 0 1.86-1.45 3.27-4.14 3.27-.8 0-2.43-.13-3.26-1.19-.59-.77-.61-1.61-.61-2.12h1.51Z" fill="#9ea3a6"/>
        <path d="M93.31 82.64c-.03-.33-.13-1.52-1.45-1.52-1.89 0-1.89 2.19-1.89 2.75 0 1.5.36 2.89 1.82 2.89 1.16 0 1.55-.87 1.58-1.58h1.38c-.09 1.43-1.15 2.62-2.95 2.62-.5 0-1.63-.1-2.4-.94-.44-.51-.87-1.28-.87-2.79 0-3.04 1.86-3.94 3.31-3.94.48 0 1.57.1 2.24.9.53.63.58 1.22.61 1.63h-1.38Z" fill="#9ea3a6"/>
        <path d="M96.29 77.13h1.64v1.5h-1.64zm.15 3.17h1.37v7.3h-1.37z" fill="#9ea3a6"/>
        <path d="M101.35 83.24c.03-1.62 1.1-2.15 1.99-2.15 1.69 0 1.82 1.45 1.8 2.15zm5.19.96c.03-1.19.1-4.08-3.17-4.08-.42 0-1.29.04-1.99.54-1.15.8-1.44 1.99-1.44 3.43 0 2.31 1.09 3.73 3.39 3.73 1.47 0 2.19-.61 2.51-.97.52-.57.58-1.16.63-1.53h-1.37c-.12 1.05-.83 1.51-1.71 1.51-1.5 0-2.12-1.12-2.09-2.63h5.25Z" fill="#9ea3a6"/>
        <path d="M108.59 81.14v-.84h1.35v1.18c.18-.3.7-1.32 2.35-1.32.66 0 2.65.25 2.65 2.48v4.96h-1.39v-4.64c0-.48-.06-.92-.4-1.25-.35-.33-.82-.49-1.29-.49-.99 0-1.91.71-1.91 2.18v4.2h-1.37v-6.45Z" fill="#9ea3a6"/>
        <path d="M121.58 82.64c-.03-.33-.13-1.52-1.45-1.52-1.89 0-1.89 2.19-1.89 2.75 0 1.5.36 2.89 1.82 2.89 1.16 0 1.56-.87 1.58-1.58h1.38c-.09 1.43-1.15 2.62-2.95 2.62-.49 0-1.63-.1-2.4-.94-.44-.51-.87-1.28-.87-2.79 0-3.04 1.86-3.94 3.32-3.94.48 0 1.57.1 2.24.9.54.63.58 1.22.61 1.63h-1.38Z" fill="#9ea3a6"/>
        <path d="M125.58 83.24c.03-1.62 1.11-2.15 1.99-2.15 1.69 0 1.82 1.45 1.8 2.15zm5.18.96c.03-1.19.1-4.08-3.17-4.08-.42 0-1.29.04-1.99.54-1.15.8-1.44 1.99-1.44 3.43 0 2.31 1.09 3.73 3.39 3.73 1.47 0 2.2-.61 2.52-.97.52-.57.58-1.16.62-1.53h-1.36c-.12 1.05-.83 1.51-1.71 1.51-1.5 0-2.12-1.12-2.09-2.63h5.25Z" fill="#9ea3a6"/>
        <path d="M139.91 80.78c-.64-.62-1.1-1.19-1.1-1.79 0-.55.52-1.08 1.31-1.08.87 0 1.21.57 1.21.99 0 .91-1.05 1.62-1.41 1.87Zm4.27.01c0 1.8-.23 2.57-.77 3.47l-2.57-2.54c.61-.41 2.04-1.34 2.04-2.88 0-.55-.23-1.08-.62-1.44-.33-.3-.84-.65-2.18-.65-1.82 0-2.82.94-2.82 2.31 0 1.25.77 2.01 1.21 2.41-1.09.81-2.21 1.7-2.21 3.34s1.28 3.02 3.53 3.02c1.44 0 2.66-.58 3.63-1.54l1.37 1.29h2.04l-2.5-2.43c.97-1.29 1.26-2.34 1.28-4.37h-1.41Zm-1.72 4.64c-.38.39-1.15 1.19-2.47 1.19-.87 0-2.22-.39-2.22-1.85 0-.79.41-1.5 1.62-2.38l3.08 3.04Z" fill="#9ea3a6"/>
        <path d="M152.09 87.6v-9.26h-3.52V77.1h8.47v1.24h-3.51v9.26z" fill="#9ea3a6"/>
        <path d="M157.64 83.24c.03-1.62 1.1-2.15 1.99-2.15 1.68 0 1.82 1.45 1.8 2.15zm5.19.96c.03-1.19.1-4.08-3.17-4.08-.42 0-1.29.04-1.99.54-1.15.8-1.44 1.99-1.44 3.43 0 2.31 1.09 3.73 3.39 3.73 1.47 0 2.2-.61 2.52-.97.52-.57.58-1.16.62-1.53h-1.37c-.12 1.05-.83 1.51-1.71 1.51-1.5 0-2.12-1.12-2.09-2.63h5.25Z" fill="#9ea3a6"/>
        <path d="M168.99 82.64c-.03-.33-.13-1.52-1.46-1.52-1.89 0-1.89 2.19-1.89 2.75 0 1.5.36 2.89 1.81 2.89 1.16 0 1.56-.87 1.59-1.58h1.38c-.09 1.43-1.15 2.62-2.95 2.62-.49 0-1.63-.1-2.4-.94-.44-.51-.87-1.28-.87-2.79 0-3.04 1.86-3.94 3.31-3.94.48 0 1.57.1 2.24.9.54.63.58 1.22.61 1.63h-1.38Z" fill="#9ea3a6"/>
        <path d="M171.37 77.12h1.38v4.26c.45-.77 1.35-1.2 2.37-1.2.77 0 1.87.28 2.3 1.16.15.29.25.64.25 1.7v4.57h-1.4v-4.32c0-.65 0-2.06-1.57-2.06-1.02 0-1.53.62-1.71.97-.23.41-.23 1.09-.23 1.54v3.87h-1.38V77.13Z" fill="#9ea3a6"/>
        <path d="m180.3 81.14-.02-.84h1.37l.02 1.18c.16-.3.68-1.32 2.34-1.32.66 0 2.65.25 2.65 2.48v4.96h-1.4v-4.64c0-.48-.06-.92-.39-1.25-.35-.33-.83-.49-1.29-.49-.99 0-1.9.71-1.9 2.18v4.2h-1.37v-6.45Z" fill="#9ea3a6"/>
        <path d="M190.02 83.95c0-2.28 1.41-2.83 2.28-2.83 1.28 0 2.12.96 2.12 2.78 0 2.19-1.18 2.93-2.21 2.93-1.55 0-2.2-1.38-2.2-2.88Zm-1.42.09c0 2.14 1.18 3.81 3.59 3.81s3.69-1.77 3.69-3.91c0-1.53-.65-3.82-3.57-3.82s-3.71 2.12-3.71 3.92" fill="#9ea3a6"/>
        <path d="M198.04 77.12h1.37V87.6h-1.37z" fill="#9ea3a6"/>
        <path d="M202.94 83.95c0-2.28 1.41-2.83 2.29-2.83 1.28 0 2.12.96 2.12 2.78 0 2.19-1.18 2.93-2.21 2.93-1.55 0-2.2-1.38-2.2-2.88m-1.42.09c0 2.14 1.18 3.81 3.59 3.81s3.69-1.77 3.69-3.91c0-1.53-.65-3.82-3.57-3.82s-3.71 2.12-3.71 3.92" fill="#9ea3a6"/>
        <path d="M213.82 86.45c-1.67 0-2-1.49-2-2.6 0-.93.23-2.67 1.96-2.67.62 0 1.21.25 1.57.64.36.38.56.9.56 1.82 0 1.32-.2 1.71-.49 2.09-.33.44-.8.73-1.6.73Zm-3.03 1.71c.06.99.14 2.35 3.06 2.35 1 0 2.43-.14 3.04-1.31.29-.55.35-1.27.35-3.02l.02-4.57.03-1.32h-1.32v1c-.3-.38-.84-1.1-2.31-1.1-1.79 0-3.24 1.21-3.24 3.68 0 .97.2 1.95.83 2.69.61.76 1.57.9 2.24.9.43 0 1.81-.03 2.4-1.24 0 1.97-.03 3.36-1.94 3.36-1.29 0-1.64-.61-1.7-1.42h-1.45Z" fill="#9ea3a6"/>
        <path d="m223.1 87.64-1.05 2.72h-1.41l1.1-2.79-3.04-7.27h1.54l2.28 5.75 2.33-5.75h1.48l-3.24 7.34Z" fill="#9ea3a6"/>
        <path d="M56.5 33.28h-.02l-2.25 7.71h7.89s-1.05 6.76-9.96 6.76c-1.66 0-10.65.36-8.56-10.68.86-4.52 2.49-11.52-.44-16.47-.03-.07-2.18-5.56-14.02-5.57H11.57l-2.24 7.58h16.3c12.69 0 10.13 8.47 9.62 11.89-1.04 6.86-5 20.79 14.87 20.97 5.46.04 11.12-1.46 15.56-4.95 4.57-3.59 5.64-8.77 5.65-8.78l2.49-8.46H56.49Z" fill="url(#3f0afdf1-4e17-428e-8f84-d2b3e26d99d0)"/>
        <path d="M98.41 5.46c.89-3.01 4.3-5.46 7.61-5.46s5.28 2.45 4.39 5.46-4.3 5.46-7.6 5.46-5.28-2.45-4.39-5.46Z" fill="url(#428ce775-eda8-4e2d-b973-78b72c7951df)" fill-rule="evenodd"/>
        <path d="M152.76 14.96c-.23.77-2.06 7-2.29 7.77h10.08c-.09.29-7.48 25.36-7.48 25.36-.14.46-1.39 5.78-5.54 4.81-1.29-.3-2.65-1.37-3.09-2.11 0 0 .02.04.05.12 1.29 2.35 3.71 4.38 8.06 4.39 4.77 0 9.31-3.23 11.25-9.83l6.71-22.74h10.16c.23-.77 2.06-7 2.29-7.77h-30.21Z" fill="url(#dce8ab3e-47a0-42f9-89a6-111b2fe17fdc)"/>
        <path d="M16.62 46.72c-1.46-.03-3.14-.03-4.39-.03l5.81-19.74H8.05L0 54.3h14.49c4.83 0 6.87-.17 8.74-.45 3.51-.52 7.07-1.73 10.34-3.68-1.27-2.43-1.92-6.41-.88-11.12 0 0-2.53 7.94-16.07 7.67" fill="url(#cd6953cf-3005-417b-9d13-db33929471f1)"/>
        <path d="M63.33 13.11c-11.13 0-18.43 6.06-18.43 6.06 1.5 2.29 1.94 5.22 1.98 7.52.04 1.79-.25 3.53-.25 3.53 3.3-9.54 15.05-12.6 17.68-13.06 13.52-2.37 17 3.91 18.26 6.36-3.06-7.93-12.75-10.41-19.24-10.41" fill="url(#7b1f1546-0df2-44cc-b812-c097b24c5b2f)"/>
        <path d="M100.36 14.34c-4.27 1.36-7.41 4.63-8.82 9.29l-7.21 24.42c-.47 1.58-1.23 4.6-2.84 4.36-1.34-.2-2.2-1.13-2.75-2.14 0 0 1.02 4.77 6.78 4.77 6.15-.05 8.39-5.66 9.55-9.61l7.21-24.42c.84-2.86 4.06-6.73 7.53-5.43.5.19 1.43.77 2.29 2.49 0 0-2.09-6.81-11.75-3.74Z" fill="url(#0b066132-977c-4f3e-834d-9aa9f5194518)"/>
        <path d="M78.75 50.27q.18.3.36.57c.54.77 1.31 1.41 2.39 1.57 1.61.24 2.37-2.78 2.84-4.36l1.96-6.64-2.5-13.48c-.24-1.36-.57-2.66-.94-3.71-.11-.29-.23-.61-.39-.93.03.08.07.16.11.24-1.17-2.28-4.27-7.88-15.62-6.72 2.72 1.32 5.93 4.22 7.15 10.63 0 0 3.25 18.96 4.65 22.85Z" fill="url(#1a967451-4d03-493f-bd01-82a711592b05)"/>
        <path d="M120.07 52.74c-1.01-1.27-1.74-2.84-2.13-4.84 0 0-4.63-25.27-5.1-27.47-.07-.36-.3-1.34-.73-2.35-.86-1.72-1.79-2.3-2.29-2.49-2.8-1.04-5.43 1.27-6.79 3.7.44 2.38 4.7 25.36 4.95 26.65.24 1.19.48 3.25 1.42 4.65 3.23 3.8 7.98 3.05 10.67 2.16Z" fill="url(#7da5fbca-af70-45ce-a3a6-a6545036e032)"/>
        <path d="M137.63 13.79h.01c-1.23-.02-2.39-.03-4.4.15-3.45.31-8.36 1.87-11.37 4.93-.43.44-6.56 6.38-3.14 12.91 1.34 2.55 6.74 9.41 6.74 9.41.55.76 2.39 3.02.99 6.04-.59 1.27-1.93 3.22-4.39 4.68-.8.45-8.22 3.96-12.7-1.36 0 0 1.87 5.16 9.03 5.16 9.82 0 15.57-5.34 17.95-9.52 1.21-2.19 2.13-5.19.32-8.66-1.7-3.25-5.31-7.91-6.75-9.73-1.3-1.65-2-3.52-1.15-5.54.7-2.1 2.49-4.1 4.93-5.52 9.82-5.29 13.23 2.3 13.23 2.3-1.53-4.94-7.56-5.27-9.29-5.26Z" fill="url(#c4d43cd4-fdca-4d0d-8592-b972184b7952)"/>
        <path d="M147.53 52.91c2.97.69 4.46-1.84 5.11-3.5.14-.4.27-.8.39-1.21 0 0-3.61-23.14-6.13-29.16-.13-.28-3.34-6.91-12.12-2.83 1.83 1.14 3.2 3.42 4.16 7.79l4.39 23.57c.31 1.45.7 2.5 1.12 3.26.46.74 1.8 1.79 3.07 2.09Z" fill="url(#da2c5237-a741-45de-ae96-b32d03b536ef)"/>
    </g>
</svg>
