<?xml version="1.0" encoding="UTF-8"?>
<svg id="Layer_2" data-name="Layer 2" xmlns="http://www.w3.org/2000/svg" xmlns:xlink="http://www.w3.org/1999/xlink" viewBox="0 0 331.53 401.9">
  <defs>
    <style>
      .cls-1 {
        fill: none;
      }

      .cls-2 {
        fill: #231f20;
      }

      .cls-3 {
        fill: #fff;
      }

      .cls-4 {
        fill: #f7941d;
      }

      .cls-5 {
        clip-path: url(#clippath);
      }

      .cls-6 {
        fill: #c4203b;
      }
    </style>
    <clipPath id="clippath">
      <path class="cls-1" d="M299.16,71.31h0c-10.85,4.15-22.38,6.27-34,6.25l-23.36-.04s40.72,13.01,38.38,21.07-9.62,16.63-5.72,22.87,24.99,18.77,24.99,18.77l15.03-25.17-15.33-43.76Z"/>
    </clipPath>
  </defs>
  <g id="Layer_3" data-name="Layer 3">
    <path class="cls-6" d="M51.47,310.55c23.56-153.24,108.49-158.98,128.11-248.5-12.74-3.91-22.78-14.16-26.48-26.89,7.77,3.92,17.1,5.13,25.68,3.35-18.13-3.58-31.76-19.97-31.85-38.51,21.49,16.46,46.95,26.44,73.42,31.31,6.44,1.19,12.96,1.94,19.5,2.27,45.4,2.3,75.86,53.59,55.71,94.51,32.49,86.4-36.04,184.41-128.85,182.43l-115.25.03Z"/>
    <g class="cls-5">
      <path class="cls-2" d="M235.28,33.52c47.9-1.05,81.1,52.3,60.29,94.57,32.49,86.4-36.04,184.41-128.85,182.43-30.29-7.56-62.95,12.26-70.58,41.85-14.87,36.69-58,57.67-96.14,46.55l112.82-137.84c-16.49,11.23-44.72,30.43-61.35,41.76,23.56-153.24,108.49-151.27,128.11-240.79-12.74-3.91-22.78-14.16-26.48-26.89,7.77,3.92,17.1,5.13,25.68,3.35-18.13-3.58-31.76-19.97-31.85-38.51,25.5,19.54,56.61,29.95,88.35,33.52Z"/>
    </g>
    <path class="cls-4" d="M297.28,115.63c-3.64,1.51-9.25.9-11.25-2.64-2.73-6.71-1.88-14.71.6-21.36,2.37-5.5,6.29-13.29,13.36-11.89,11.89,4.05,22.21,12.5,30.43,21.7,1.46,1.61,1.74,2.82-.85,3.07-11.64,1.09-22.24,5.32-32.15,11.06l-.15.06Z"/>
    <g>
      <path class="cls-3" d="M60.6,304.92v-28.53h34.03v6.05h-26.07v4.27h26.07v5.8h-26.07v6.35h26.07v6.05h-34.03Z"/>
      <path class="cls-3" d="M136.5,304.92v-15.87l-13.88,8.93h-.97l-13.8-8.8v15.75h-7.96v-29.12h1.02l21.25,13.67,21.33-13.67h.97v29.12h-7.96Z"/>
      <path class="cls-3" d="M170.92,304.92h-20.83v-28.53h20.78c10.2,0,19.68,3.26,19.68,13.97s-9.4,14.56-19.64,14.56ZM169.57,282.49h-11.51v16.34h11.51c7.96,0,12.78-2.84,12.78-8.38s-4.83-7.96-12.78-7.96Z"/>
      <path class="cls-3" d="M220.75,296.67h-18.03v8.25h-7.96v-28.53h25.95c6.35,0,11.13,3.26,11.13,9.9s-4.78,10.37-11.09,10.37ZM218.55,282.36h-15.83v8.3h16.13c2.75,0,4.78-1.65,4.78-4.27s-2.2-4.02-5.08-4.02Z"/>
    </g>
  </g>
</svg>